<svg width="281" height="167" viewBox="0 0 281 167" fill="none" xmlns="http://www.w3.org/2000/svg">
<g clip-path="url(#clip0_1_124)">
<path d="M85.8756 109.265L78.3369 136.79L125.498 134.16L138.296 123.641L151.094 134.16L198.255 136.79V128.55L183.703 97.3429L161.613 82.4408L131.634 77.7072L106.739 87.5251L85.8756 109.265Z" fill="#E7AB12" stroke="#1C1B1A" stroke-width="0.350637"/>
<path d="M4.52832 125.043L13.8202 136.79H76.0583L84.2983 113.472L94.1161 94.8885L127.251 79.6357L160.562 81.9149L187.912 104.356L196.678 136.79L260.844 133.459H265.753L269.961 129.777V125.043V119.433H265.753L258.565 115.401V109.615L263.474 104.356L264.876 97.8689L260.844 92.7846H253.831L251.728 89.2783L253.831 79.6357V72.097L247.695 69.1166H242.962H235.598L238.579 62.4545V49.4809L235.598 45.098L225.254 49.4809L218.242 45.098V34.5788L215.787 30.5465L208.424 31.9491H201.061L194.924 30.5465L196.678 18.2742H191.593L181.6 21.9559L178.444 24.5857L170.73 18.2742V12.8393L164.068 8.10573L155.302 12.8393L148.991 16.1704L144.257 10.2096L136.894 3.37213L130.758 12.8393L125.849 16.1704L119.011 12.8393L113.401 8.10573L107.265 10.2096L103.934 21.9559H94.1161L86.7528 16.1704L80.4413 18.2742V30.5465L73.6039 34.5788L61.5069 30.5465L58.1758 31.9491L59.929 38.4359L51.8643 47.7277L43.0984 45.098L35.3844 49.4809L39.4167 60.1754L35.3844 67.5387H24.3393V76.3047V87.3498L18.2032 92.7846L11.1904 97.8689L18.2032 109.615L13.8202 118.031L4.52832 125.043Z" fill="#D9D9D9" stroke="#1C1B1A" stroke-width="0.350637"/>
<path d="M137.939 96.8958C135.176 96.8958 133.335 98.7372 133.335 101.5C133.335 104.262 135.176 106.103 137.939 106.103C140.701 106.103 142.542 104.262 142.542 101.5C142.542 99.1977 140.701 96.8958 137.939 96.8958Z" fill="#1C1B1A"/>
<path d="M167.403 109.326C165.562 107.485 162.8 107.485 160.958 109.326C159.117 111.168 159.117 113.93 160.958 115.771C162.8 117.613 165.562 117.613 167.403 115.771C169.245 113.93 169.245 110.707 167.403 109.326Z" fill="#1C1B1A"/>
<path d="M108.935 109.326C107.093 111.168 107.093 113.93 108.935 115.771C110.316 117.152 113.538 117.152 115.38 115.771C117.221 113.93 117.221 111.168 115.38 109.326C113.538 107.485 110.777 107.485 108.935 109.326Z" fill="#1C1B1A"/>
<path d="M276.052 133.726H273.325C275.554 131.393 276.789 128.126 276.512 124.519C275.591 118.534 270.988 114.39 265.003 114.39C263.162 114.39 262.701 113.009 262.701 112.549C262.241 112.088 262.241 110.708 263.622 110.247C269.147 107.945 271.909 101.96 270.067 96.4359C268.226 90.4507 262.701 87.2284 256.717 88.6093C255.336 88.6093 254.875 87.6884 254.415 87.2284C254.415 86.3075 253.954 85.3871 255.336 84.4661C259.939 81.2433 261.32 74.7981 258.559 69.7339C255.796 64.6697 249.351 62.8283 243.826 65.1302C242.445 65.5907 241.525 64.6697 241.064 64.2092C241.064 63.7487 240.604 62.8283 241.525 61.4469C245.668 56.8431 245.668 50.858 241.525 46.2542C237.381 41.6505 230.936 41.19 226.332 44.4129C224.951 45.3338 224.03 44.8733 223.57 44.4129C223.109 43.9524 222.189 43.032 223.109 41.6505C225.871 36.5863 224.49 30.6017 219.886 26.9183C214.822 23.2356 208.837 23.6955 204.694 28.2992L204.233 28.7597C203.312 30.1406 201.931 29.2202 201.471 29.2202C201.01 29.2202 200.09 28.2992 200.55 26.4579C202.391 20.9332 200.089 14.9485 194.565 12.6467C189.501 10.3448 183.056 12.1862 180.293 17.2504L179.833 17.7109C178.912 19.0918 177.531 18.6318 177.071 18.6318C176.61 18.6318 175.69 17.7109 175.69 16.33V15.8695C176.611 9.88487 172.927 4.82066 166.943 3.4392C160.958 2.05831 155.433 5.28058 153.592 10.8053V11.2658C153.132 12.6467 151.751 12.6467 151.29 12.6467C150.83 12.6467 149.449 12.1862 149.449 10.8053V10.3448C148.528 4.36017 143.924 0.21637 137.939 0.21637C131.955 0.21637 127.351 4.35961 126.43 9.88431V10.3448C126.43 11.7257 125.049 12.1862 124.589 12.1862C124.128 12.1862 122.747 12.1862 122.287 10.8053V10.3448C120.446 4.8201 114.921 1.59782 108.936 2.97872C103.412 4.35961 99.7287 9.42383 100.189 15.409V15.8695C100.65 17.2504 99.2683 18.1714 98.8083 18.1714C97.8874 18.6319 96.9669 18.6318 97.4274 16.7905L96.9669 16.33C93.7441 11.2658 87.7595 9.42439 82.2348 11.7263C76.7101 14.0281 74.4082 20.0133 76.2502 25.9979C76.7106 27.3788 75.7897 27.8393 75.3292 28.2998C74.4082 28.2998 73.4878 28.7603 72.1064 27.3788C67.9631 23.2356 61.5174 22.3146 56.9137 25.9979C52.31 29.6813 50.9285 35.6659 54.1514 41.1906C55.0723 42.5715 54.1514 43.4924 53.6909 43.9529C52.7699 44.4134 51.8495 44.8739 50.468 43.9529C45.4038 40.7301 39.4192 41.1906 35.2754 45.7943C31.1321 49.9376 31.1321 56.3832 35.2754 60.9869C36.1964 62.3678 35.7359 63.2888 35.2754 63.7493C34.8149 64.2098 33.8945 65.1302 32.513 64.2098C27.4488 61.4474 21.0037 63.7493 18.2414 68.8135C15.0185 73.8777 16.4 79.8624 21.4642 83.5457C22.8451 84.4666 22.8451 85.8475 22.3852 86.308C21.9247 87.229 21.4642 88.1494 19.6228 87.6889C13.6376 86.7679 8.1135 89.9908 6.27211 95.5155C4.43073 101.04 7.19308 107.025 12.7172 109.327C14.0981 109.787 14.0981 111.168 14.0981 111.629C13.6376 112.55 13.1772 113.47 11.7963 113.47C5.81163 113.47 0.747414 117.613 0.28693 123.598C-0.457316 128.435 1.80776 132.668 5.8618 134.844C4.95644 135.653 4.43018 136.859 4.43018 138.331V161.349C4.43018 164.112 6.27156 165.953 9.03391 165.953H276.052C278.814 165.953 280.656 164.112 280.656 161.349V138.331C280.656 135.568 278.814 133.726 276.052 133.726ZM11.3352 123.137C16.8599 123.137 21.4636 119.455 22.3841 113.93C23.765 108.405 21.0032 103.341 15.9389 101.039C14.0976 100.118 14.0976 99.1977 14.558 98.2767C15.0185 97.8162 15.479 96.4353 17.3204 96.8958C22.8451 98.2767 27.9093 95.5149 30.2112 90.4507C32.513 85.3865 31.1321 79.8618 26.5284 76.6395C25.6074 75.7186 25.6074 74.7981 26.0679 73.8772C26.0679 72.9562 26.9889 72.0358 28.8303 72.9562C33.8945 75.2581 39.4192 73.8772 42.6415 69.2734C45.8643 65.1302 45.4038 59.145 41.7205 55.0018C40.7995 54.0808 41.26 52.6999 41.7205 52.2394C42.181 51.7789 43.1014 50.8585 44.9433 52.2394C49.0866 55.4623 55.0718 55.0018 58.7545 51.3184C62.4373 47.6357 63.3583 42.111 60.5959 37.0468C59.6749 35.6659 60.1354 34.7449 61.0564 34.2844C61.5169 33.8239 62.8978 33.3634 64.2792 34.7449C67.9625 38.8881 73.9472 39.8091 78.5509 37.0468C83.6151 34.2844 85.4565 28.7597 83.6151 23.2356C83.1546 21.3942 84.0756 20.9337 84.996 20.4732C85.4565 20.0127 86.8374 20.0127 87.7584 21.3942L88.2189 21.8547C90.9812 26.4584 96.5059 28.7603 101.57 26.9189C107.094 25.0775 109.857 20.4738 109.396 14.9491V14.4886C109.396 13.1077 110.317 12.1867 111.238 12.1867C111.698 12.1867 113.079 12.1867 113.539 13.5676V14.0281C115.381 19.0923 119.984 22.3152 125.509 21.8547C131.034 21.3942 135.177 17.251 135.638 11.7263V11.2658C136.098 9.88487 137.019 9.42439 137.939 9.42439C138.86 9.42439 139.781 9.88487 140.241 11.7263V12.1867C140.702 17.7114 144.845 21.8547 150.37 22.3152C155.894 22.7757 160.498 19.5528 162.34 14.4886V14.0281C162.8 12.6472 163.72 12.6472 164.641 12.6472C165.562 12.6472 166.483 13.5682 166.483 14.9491V15.4096C166.022 20.9343 169.245 25.538 174.309 27.3794C179.374 29.2208 184.898 26.9189 187.66 22.3152L188.121 21.8547C189.042 20.4738 190.422 20.4738 190.883 20.9337C191.343 20.9337 192.264 21.8547 191.804 23.6961C189.963 28.7603 192.264 34.285 196.868 37.0468C201.932 39.8091 207.457 38.8881 211.14 34.7449L211.6 34.2844C212.521 32.9035 213.902 33.3635 214.363 33.8239C215.284 34.7449 215.744 35.2048 214.823 37.0468C212.061 42.111 212.982 47.6357 217.125 51.3184C221.268 55.0012 227.253 55.0012 231.857 51.7789C233.238 50.858 234.159 51.7789 234.619 52.2394C235.54 52.6999 236 53.6203 234.619 55.0018C230.937 59.145 230.476 64.6697 233.699 69.2734C236.921 73.8772 242.445 75.2581 247.51 72.9562C248.891 72.4957 249.812 73.4167 250.272 73.8772C250.733 74.3377 251.193 75.7186 249.812 76.6395C245.208 79.8624 243.827 85.3865 246.129 90.4507C248.431 95.5149 253.495 98.2773 259.02 96.8958C260.4 96.4353 261.321 97.3563 261.321 98.2767C261.782 99.1977 261.782 100.579 260.4 101.039C255.336 103.341 253.034 108.405 253.955 113.93C254.876 119.455 259.48 123.137 265.004 123.137C266.846 123.137 267.306 124.058 267.306 124.979C267.306 125.899 266.846 126.82 265.465 127.281C261.321 128.202 258.559 130.503 257.178 133.726H202.226C199.845 100.404 171.841 73.8766 137.94 73.8766C104.039 73.8766 76.0355 100.404 73.6545 133.726H19.1618C17.3204 130.503 14.558 128.201 10.8747 127.281C9.03335 126.82 9.03335 125.9 9.03335 124.979C9.03335 124.058 9.49383 123.137 11.3352 123.137ZM155.767 133.726C153.71 125.807 146.479 119.915 137.939 119.915C129.399 119.915 122.168 125.807 120.11 133.726H83.1541C85.4559 105.643 108.935 83.0846 137.939 83.0846C166.943 83.0846 190.882 105.183 193.184 133.726H155.767ZM146.226 133.726H130.113C131.494 130.964 135.177 129.123 138.4 129.123C141.622 129.123 144.845 130.964 146.226 133.726ZM271.448 156.745H13.6371V142.934H73.4861H119.524H156.354H202.392H265.463H265.924H271.448V156.745Z" fill="#1C1B1A"/>
<mask id="path-7-inside-1_1_124" fill="white">
<rect x="4.35254" y="134.51" width="276.302" height="31.5574" rx="3.85701"/>
</mask>
<rect x="4.35254" y="134.51" width="276.302" height="31.5574" rx="3.85701" fill="#E7AB12" stroke="#1C1B1A" stroke-width="16.8306" mask="url(#path-7-inside-1_1_124)"/>
</g>
<defs>
<clipPath id="clip0_1_124">
<rect width="280.51" height="165.851" fill="white" transform="translate(0.144531 0.21637)"/>
</clipPath>
</defs>
</svg>
