<svg width="1128" height="166" viewBox="0 0 1128 166" fill="none" xmlns="http://www.w3.org/2000/svg">
<g clip-path="url(#clip0_1_108)">
<path d="M85.7311 109.156L78.1924 136.681L125.353 134.052L138.151 123.532L150.95 134.052L198.11 136.681V128.441L183.559 97.2347L161.469 82.3326L131.489 77.599L106.594 87.4168L85.7311 109.156Z" fill="#E7AB12" stroke="#1C1B1A" stroke-width="0.350637"/>
<path d="M4.38281 124.935L13.6747 136.681H75.9128L84.1528 113.364L93.9706 94.7802L127.106 79.5275L160.416 81.8067L187.766 104.247L196.532 136.681L260.699 133.35H265.608L269.815 129.669V124.935V119.325H265.608L258.42 115.293V109.507L263.328 104.247L264.731 97.7607L260.699 92.6764H253.686L251.582 89.17L253.686 79.5275V71.9888L247.55 69.0084H242.816H235.453L238.433 62.3463V49.3727L235.453 44.9897L225.109 49.3727L218.096 44.9897V34.4706L215.642 30.4383L208.278 31.8409H200.915L194.779 30.4383L196.532 18.166H191.448L181.455 21.8477L178.299 24.4775L170.585 18.166V12.7311L163.923 7.99752L155.157 12.7311L148.845 16.0622L144.112 10.1013L136.748 3.26392L130.612 12.7311L125.703 16.0622L118.866 12.7311L113.256 7.99752L107.12 10.1013L103.788 21.8477H93.9706L86.6072 16.0622L80.2958 18.166V30.4383L73.4584 34.4706L61.3614 30.4383L58.0303 31.8409L59.7835 38.3276L51.7188 47.6195L42.9529 44.9897L35.2389 49.3727L39.2712 60.0672L35.2389 67.4305H24.1938V76.1965V87.2415L18.0577 92.6764L11.0449 97.7607L18.0577 109.507L13.6747 117.922L4.38281 124.935Z" fill="#D9D9D9" stroke="#1C1B1A" stroke-width="0.350637"/>
<path d="M137.792 96.7876C135.03 96.7876 133.188 98.629 133.188 101.391C133.188 104.154 135.03 105.995 137.792 105.995C140.555 105.995 142.396 104.154 142.396 101.391C142.396 99.0895 140.555 96.7876 137.792 96.7876Z" fill="#1C1B1A"/>
<path d="M167.257 109.218C165.415 107.377 162.653 107.377 160.812 109.218C158.97 111.059 158.97 113.822 160.812 115.663C162.653 117.504 165.415 117.504 167.257 115.663C169.098 113.822 169.098 110.599 167.257 109.218Z" fill="#1C1B1A"/>
<path d="M108.789 109.218C106.948 111.059 106.948 113.822 108.789 115.663C110.17 117.044 113.393 117.044 115.234 115.663C117.076 113.822 117.076 111.059 115.234 109.218C113.393 107.377 110.631 107.377 108.789 109.218Z" fill="#1C1B1A"/>
<path d="M275.905 133.618H273.178C275.408 131.284 276.643 128.018 276.366 124.411C275.445 118.426 270.841 114.282 264.857 114.282C263.015 114.282 262.555 112.901 262.555 112.441C262.094 111.98 262.094 110.599 263.476 110.139C269 107.837 271.763 101.852 269.921 96.3277C268.079 90.3425 262.555 87.1202 256.57 88.5011C255.189 88.5011 254.729 87.5801 254.268 87.1202C254.268 86.1993 253.808 85.2788 255.189 84.3579C259.793 81.135 261.174 74.6899 258.412 69.6257C255.65 64.5615 249.205 62.7201 243.68 65.022C242.299 65.4825 241.378 64.5615 240.918 64.101C240.918 63.6405 240.457 62.7201 241.378 61.3387C245.521 56.7349 245.521 50.7497 241.378 46.146C237.235 41.5423 230.789 41.0818 226.185 44.3046C224.804 45.2256 223.884 44.7651 223.423 44.3046C222.963 43.8442 222.042 42.9237 222.963 41.5423C225.725 36.4781 224.343 30.4934 219.74 26.8101C214.675 23.1274 208.691 23.5873 204.547 28.191L204.087 28.6515C203.166 30.0324 201.785 29.112 201.324 29.112C200.864 29.112 199.943 28.191 200.403 26.3496C202.245 20.8249 199.943 14.8403 194.419 12.5384C189.354 10.2366 182.909 12.078 180.147 17.1422L179.686 17.6027C178.766 18.9836 177.385 18.5236 176.924 18.5236C176.464 18.5236 175.543 17.6027 175.543 16.2218V15.7613C176.464 9.77666 172.781 4.71244 166.796 3.33099C160.811 1.95009 155.287 5.17237 153.446 10.6971V11.1576C152.985 12.5384 151.604 12.5384 151.144 12.5384C150.683 12.5384 149.302 12.078 149.302 10.6971V10.2366C148.381 4.25196 143.778 0.108154 137.793 0.108154C131.808 0.108154 127.204 4.2514 126.284 9.7761V10.2366C126.284 11.6175 124.903 12.078 124.442 12.078C123.982 12.078 122.601 12.078 122.14 10.6971V10.2366C120.299 4.71188 114.774 1.4896 108.79 2.8705C103.265 4.2514 99.5823 9.31561 100.043 15.3008V15.7613C100.503 17.1422 99.1218 18.0632 98.6618 18.0632C97.7409 18.5236 96.8205 18.5236 97.2809 16.6823L96.8205 16.2218C93.5976 11.1575 87.613 9.31617 82.0883 11.618C76.5636 13.9199 74.2617 19.9051 76.1037 25.8897C76.5642 27.2706 75.6432 27.7311 75.1827 28.1916C74.2617 28.1916 73.3413 28.6521 71.9599 27.2706C67.8166 23.1274 61.371 22.2064 56.7672 25.8897C52.1635 29.573 50.782 35.5577 54.0049 41.0824C54.9258 42.4633 54.0049 43.3842 53.5444 43.8447C52.6234 44.3052 51.703 44.7657 50.3216 43.8447C45.2573 40.6219 39.2727 41.0824 35.1289 45.6861C30.9857 49.8293 30.9857 56.275 35.1289 60.8787C36.0499 62.2596 35.5894 63.1806 35.1289 63.6411C34.6684 64.1016 33.748 65.022 32.3666 64.1016C27.3023 61.3392 20.8572 63.6411 18.0949 68.7053C14.872 73.7695 16.2535 79.7541 21.3177 83.4375C22.6986 84.3584 22.6986 85.7393 22.2387 86.1998C21.7782 87.1208 21.3177 88.0412 19.4763 87.5807C13.4912 86.6597 7.96701 89.8826 6.12563 95.4073C4.28425 100.932 7.0466 106.917 12.5707 109.218C13.9516 109.679 13.9516 111.06 13.9516 111.52C13.4912 112.441 13.0307 113.362 11.6498 113.362C5.66515 113.362 0.60093 117.505 0.140446 123.49C-0.6038 128.327 1.66127 132.56 5.71532 134.736C4.80996 135.545 4.28369 136.751 4.28369 138.222V161.241C4.28369 164.003 6.12507 165.845 8.88742 165.845H275.905C278.668 165.845 280.509 164.003 280.509 161.241V138.222C280.509 135.459 278.668 133.618 275.905 133.618ZM11.1887 123.029C16.7134 123.029 21.3172 119.346 22.2376 113.822C23.6185 108.297 20.8567 103.233 15.7925 100.931C13.9511 100.01 13.9511 99.0895 14.4116 98.1685C14.872 97.708 15.3325 96.3271 17.1739 96.7876C22.6986 98.1685 27.7628 95.4067 30.0647 90.3425C32.3666 85.2783 30.9857 79.7536 26.3819 76.5313C25.461 75.6103 25.461 74.6899 25.9214 73.769C25.9214 72.848 26.8424 71.9276 28.6838 72.848C33.748 75.1499 39.2727 73.769 42.495 69.1652C45.7178 65.022 45.2573 59.0368 41.574 54.8936C40.653 53.9726 41.1135 52.5917 41.574 52.1312C42.0345 51.6707 42.9549 50.7503 44.7969 52.1312C48.9401 55.354 54.9253 54.8936 58.608 51.2102C62.2908 47.5275 63.2118 42.0028 60.4494 36.9386C59.5285 35.5577 59.9889 34.6367 60.9099 34.1762C61.3704 33.7157 62.7513 33.2552 64.1327 34.6367C67.8161 38.7799 73.8007 39.7009 78.4044 36.9386C83.4686 34.1762 85.31 28.6515 83.4686 23.1274C83.0082 21.286 83.9291 20.8255 84.8495 20.365C85.31 19.9045 86.6909 19.9045 87.6119 21.286L88.0724 21.7465C90.8347 26.3502 96.3594 28.6521 101.423 26.8107C106.948 24.9693 109.71 20.3656 109.25 14.8409V14.3804C109.25 12.9995 110.171 12.0785 111.091 12.0785C111.552 12.0785 112.932 12.0785 113.393 13.4594V13.9199C115.234 18.9841 119.838 22.207 125.363 21.7465C130.887 21.286 135.031 17.1427 135.491 11.618V11.1576C135.952 9.77666 136.872 9.31617 137.793 9.31617C138.714 9.31617 139.634 9.77666 140.095 11.618V12.0785C140.555 17.6032 144.699 21.7465 150.223 22.207C155.748 22.6674 160.352 19.4446 162.193 14.3804V13.9199C162.654 12.539 163.574 12.539 164.495 12.539C165.416 12.539 166.336 13.46 166.336 14.8409V15.3014C165.876 20.8261 169.099 25.4298 174.163 27.2712C179.227 29.1126 184.752 26.8107 187.514 22.207L187.974 21.7465C188.895 20.3656 190.276 20.3656 190.736 20.8255C191.197 20.8255 192.117 21.7465 191.657 23.5878C189.816 28.6521 192.118 34.1768 196.722 36.9386C201.786 39.7009 207.311 38.7799 210.993 34.6367L211.454 34.1762C212.375 32.7953 213.756 33.2552 214.216 33.7157C215.137 34.6367 215.597 35.0966 214.677 36.9386C211.914 42.0028 212.835 47.5275 216.979 51.2102C221.122 54.893 227.107 54.893 231.711 51.6707C233.092 50.7497 234.013 51.6707 234.473 52.1312C235.394 52.5917 235.854 53.5121 234.473 54.8936C230.79 59.0368 230.33 64.5615 233.552 69.1652C236.774 73.769 242.299 75.1499 247.363 72.848C248.744 72.3875 249.665 73.3085 250.126 73.769C250.586 74.2294 251.047 75.6103 249.665 76.5313C245.061 79.7541 243.68 85.2783 245.982 90.3425C248.284 95.4067 253.348 98.1691 258.873 96.7876C260.254 96.3271 261.175 97.2481 261.175 98.1685C261.635 99.0895 261.635 100.47 260.254 100.931C255.19 103.233 252.888 108.297 253.809 113.822C254.73 119.346 259.334 123.029 264.858 123.029C266.699 123.029 267.16 123.95 267.16 124.87C267.16 125.791 266.699 126.712 265.318 127.172C261.175 128.093 258.413 130.395 257.031 133.617H202.079C199.698 100.296 171.695 73.7684 137.794 73.7684C103.892 73.7684 75.889 100.295 73.508 133.617H19.0153C17.1739 130.395 14.4116 128.093 10.7282 127.172C8.88686 126.712 8.88686 125.791 8.88686 124.87C8.88686 123.95 9.34735 123.029 11.1887 123.029ZM155.621 133.618C153.563 125.698 146.333 119.807 137.792 119.807C129.252 119.807 122.022 125.699 119.964 133.618H83.0076C85.3095 105.535 108.789 82.9764 137.792 82.9764C166.796 82.9764 190.736 105.075 193.038 133.618H155.621ZM146.079 133.618H129.966C131.347 130.856 135.031 129.014 138.253 129.014C141.476 129.014 144.698 130.856 146.079 133.618ZM271.302 156.637H13.4906V142.825H73.3396H119.378H156.207H202.245H265.317H265.777H271.302V156.637Z" fill="#1C1B1A"/>
<mask id="path-7-inside-1_1_108" fill="white">
<rect x="4.20703" y="134.402" width="276.302" height="31.5574" rx="3.85701"/>
</mask>
<rect x="4.20703" y="134.402" width="276.302" height="31.5574" rx="3.85701" fill="#E7AB12" stroke="#1C1B1A" stroke-width="16.8306" mask="url(#path-7-inside-1_1_108)"/>
<path d="M302.406 160.163V2.19879H375.715V30.7807H330.769V81.399H362.406V109.763H330.769V160.163H302.406ZM389.968 160.163V2.19879H463.278V30.7807H418.332V81.399H441.241V109.763H418.332V131.799H463.278V160.163H389.968ZM477.531 160.163V2.41697H524.877C553.459 2.41697 580.95 20.0898 580.95 54.1262V108.672C580.95 142.708 553.459 160.163 524.877 160.163H477.531ZM505.895 131.799H524.877C540.804 131.799 552.586 123.508 552.586 103.872V58.708C552.586 39.2898 541.022 30.9989 524.877 30.9989H505.895V131.799ZM596.202 160.163V2.19879H669.511V30.7807H624.566V81.399H647.475V109.763H624.566V131.799H669.511V160.163H596.202ZM704.274 160.163V30.5625H680.274V2.19879H756.856V30.5625H732.856V160.163H704.274ZM770.901 160.163V2.19879H844.211V30.7807H799.265V81.399H822.174V109.763H799.265V131.799H844.211V160.163H770.901ZM858.464 160.163V2.19879H905.81C936.573 2.19879 961.883 22.9261 961.883 55.8717C961.883 81.6172 946.61 102.781 924.137 104.963C928.064 116.308 938.755 133.981 954.246 150.781C957.301 154.054 960.574 157.108 964.064 160.163H926.973C908.864 139.654 895.119 110.635 890.973 85.3263C890.537 83.1445 892.282 81.399 894.464 81.399H907.773C922.61 81.399 933.519 72.6717 933.519 55.8717C933.519 39.2898 922.61 30.5625 905.81 30.5625H886.828V160.163H858.464ZM977.135 160.163V2.19879H1005.5V160.163H977.135ZM1097.99 160.163C1097.99 141.617 1096.68 124.817 1094.06 109.763H1051.3V160.163H1022.94V2.19879H1037.12C1072.9 2.19879 1103.01 39.9444 1114.35 73.7626C1122.43 97.3263 1126.57 126.345 1126.57 160.163H1097.99ZM1051.3 81.399H1087.08C1079.88 61.3262 1068.32 43.4353 1051.3 34.9262V81.399Z" fill="#1C1B1A"/>
</g>
<defs>
<clipPath id="clip0_1_108">
<rect width="1128" height="165.851" fill="white" transform="translate(0 0.108154)"/>
</clipPath>
</defs>
</svg>
