<svg width="830" height="166" viewBox="0 0 830 166" fill="none" xmlns="http://www.w3.org/2000/svg">
<g clip-path="url(#clip0_1_156)">
<path d="M4.36365 160.055V2.09058H77.673V30.6725H32.7274V81.2908H64.3638V109.655H32.7274V160.055H4.36365ZM91.9264 160.055V2.09058H165.236V30.6725H120.29V81.2908H143.199V109.655H120.29V131.691H165.236V160.055H91.9264ZM179.489 160.055V2.30875H226.835C255.417 2.30875 282.908 19.9815 282.908 54.018V108.564C282.908 142.6 255.417 160.055 226.835 160.055H179.489ZM207.853 131.691H226.835C242.762 131.691 254.544 123.4 254.544 103.764V58.5998C254.544 39.1816 242.98 30.8907 226.835 30.8907H207.853V131.691ZM298.16 160.055V2.09058H371.469V30.6725H326.524V81.2908H349.433V109.655H326.524V131.691H371.469V160.055H298.16ZM406.232 160.055V30.4543H382.232V2.09058H458.814V30.4543H434.814V160.055H406.232ZM472.859 160.055V2.09058H546.169V30.6725H501.223V81.2908H524.132V109.655H501.223V131.691H546.169V160.055H472.859ZM560.422 160.055V2.09058H607.768C638.531 2.09058 663.841 22.8179 663.841 55.7635C663.841 81.509 648.568 102.673 626.095 104.855C630.022 116.2 640.713 133.873 656.204 150.673C659.259 153.946 662.532 157 666.022 160.055H628.931C610.822 139.546 597.077 110.527 592.931 85.2181C592.495 83.0363 594.24 81.2908 596.422 81.2908H609.731C624.568 81.2908 635.477 72.5635 635.477 55.7635C635.477 39.1816 624.568 30.4543 607.768 30.4543H588.786V160.055H560.422ZM679.093 160.055V2.09058H707.457V160.055H679.093ZM799.949 160.055C799.949 141.509 798.64 124.709 796.022 109.655H753.258V160.055H724.894V2.09058H739.076C774.858 2.09058 804.967 39.8361 816.313 73.6544C824.385 97.2181 828.531 126.236 828.531 160.055H799.949ZM753.258 81.2908H789.04C781.84 61.218 770.276 43.3271 753.258 34.818V81.2908Z" fill="#1C1B1A"/>
</g>
<defs>
<clipPath id="clip0_1_156">
<rect width="829.958" height="165.851" fill="white"/>
</clipPath>
</defs>
</svg>
