<svg width="304" height="278" viewBox="0 0 304 278" fill="none" xmlns="http://www.w3.org/2000/svg">
<g clip-path="url(#clip0_1_59)">
<path d="M97.3014 109.265L89.7627 136.79L136.923 134.16L149.722 123.641L162.52 134.16L209.681 136.79V128.55L195.129 97.3429L173.039 82.4408L143.06 77.7072L118.164 87.5251L97.3014 109.265Z" fill="#E7AB12" stroke="#1C1B1A" stroke-width="0.350637"/>
<path d="M15.9541 125.043L25.246 136.79H87.4841L95.7241 113.472L105.542 94.8885L138.677 79.6357L171.988 81.9149L199.337 104.356L208.103 136.79L272.27 133.459H277.179L281.387 129.777V125.043V119.433H277.179L269.991 115.401V109.615L274.9 104.356L276.302 97.8689L272.27 92.7846H265.257L263.153 89.2783L265.257 79.6357V72.097L259.121 69.1166H254.387H247.024L250.004 62.4545V49.4809L247.024 45.098L236.68 49.4809L229.668 45.098V34.5788L227.213 30.5465L219.85 31.9491H212.486L206.35 30.5465L208.103 18.2742H203.019L193.026 21.9559L189.87 24.5857L182.156 18.2742V12.8393L175.494 8.10573L166.728 12.8393L160.417 16.1704L155.683 10.2096L148.32 3.37213L142.184 12.8393L137.275 16.1704L130.437 12.8393L124.827 8.10573L118.691 10.2096L115.36 21.9559H105.542L98.1785 16.1704L91.8671 18.2742V30.5465L85.0296 34.5788L72.9327 30.5465L69.6016 31.9491L71.3548 38.4359L63.2901 47.7277L54.5242 45.098L46.8102 49.4809L50.8425 60.1754L46.8102 67.5387H35.7651V76.3047V87.3498L29.629 92.7846L22.6162 97.8689L29.629 109.615L25.246 118.031L15.9541 125.043Z" fill="#D9D9D9" stroke="#1C1B1A" stroke-width="0.350637"/>
<path d="M1.59496 233.731V175.993H28.3903V186.44H11.9622V204.942H23.5257V215.309H11.9622V233.731H1.59496ZM33.6001 233.731V175.993H60.3955V186.44H43.9674V204.942H52.3409V215.309H43.9674V223.364H60.3955V233.731H33.6001ZM65.6053 233.731V176.073H82.9106C93.3576 176.073 103.406 182.533 103.406 194.973V214.91C103.406 227.351 93.3576 233.731 82.9106 233.731H65.6053ZM75.9725 223.364H82.9106C88.7322 223.364 93.0386 220.333 93.0386 213.156V196.648C93.0386 189.55 88.812 186.52 82.9106 186.52H75.9725V223.364ZM108.981 233.731V175.993H135.776V186.44H119.348V204.942H127.722V215.309H119.348V223.364H135.776V233.731H108.981ZM148.482 233.731V186.36H139.71V175.993H167.702V186.36H158.929V233.731H148.482ZM172.835 233.731V175.993H199.631V186.44H183.203V204.942H191.576V215.309H183.203V223.364H199.631V233.731H172.835ZM204.841 233.731V175.993H222.146C233.39 175.993 242.641 183.569 242.641 195.611C242.641 205.022 237.059 212.757 228.845 213.555C230.28 217.701 234.188 224.161 239.85 230.302C240.966 231.498 242.163 232.614 243.439 233.731H229.881C223.262 226.235 218.238 215.628 216.723 206.377C216.563 205.58 217.201 204.942 217.999 204.942H222.864C228.286 204.942 232.274 201.752 232.274 195.611C232.274 189.55 228.286 186.36 222.146 186.36H215.208V233.731H204.841ZM248.216 233.731V175.993H258.583V233.731H248.216ZM292.39 233.731C292.39 226.952 291.912 220.812 290.955 215.309H275.324V233.731H264.957V175.993H270.14C283.219 175.993 294.224 189.79 298.371 202.151C301.322 210.763 302.837 221.37 302.837 233.731H292.39ZM275.324 204.942H288.403C285.771 197.605 281.544 191.066 275.324 187.955V204.942Z" fill="#1C1B1A"/>
<path d="M149.363 96.8958C146.6 96.8958 144.759 98.7372 144.759 101.5C144.759 104.262 146.6 106.103 149.363 106.103C152.125 106.103 153.966 104.262 153.966 101.5C153.966 99.1977 152.125 96.8958 149.363 96.8958Z" fill="#1C1B1A"/>
<path d="M178.827 109.326C176.986 107.485 174.223 107.485 172.382 109.326C170.541 111.168 170.541 113.93 172.382 115.771C174.223 117.613 176.986 117.613 178.827 115.771C180.668 113.93 180.668 110.707 178.827 109.326Z" fill="#1C1B1A"/>
<path d="M120.359 109.326C118.517 111.168 118.517 113.93 120.359 115.771C121.739 117.152 124.962 117.152 126.804 115.771C128.645 113.93 128.645 111.168 126.804 109.326C124.962 107.485 122.201 107.485 120.359 109.326Z" fill="#1C1B1A"/>
<path d="M287.476 133.726H284.749C286.978 131.393 288.213 128.126 287.936 124.519C287.015 118.534 282.412 114.39 276.427 114.39C274.586 114.39 274.125 113.009 274.125 112.549C273.665 112.088 273.665 110.708 275.046 110.247C280.571 107.945 283.333 101.96 281.491 96.4359C279.65 90.4507 274.125 87.2284 268.14 88.6093C266.76 88.6093 266.299 87.6884 265.839 87.2284C265.839 86.3075 265.378 85.3871 266.76 84.4661C271.363 81.2433 272.744 74.7981 269.982 69.7339C267.22 64.6697 260.775 62.8283 255.25 65.1302C253.869 65.5907 252.948 64.6697 252.488 64.2092C252.488 63.7487 252.027 62.8283 252.948 61.4469C257.092 56.8431 257.092 50.858 252.948 46.2542C248.805 41.6505 242.359 41.19 237.756 44.4129C236.375 45.3338 235.454 44.8733 234.993 44.4129C234.533 43.9524 233.612 43.032 234.533 41.6505C237.295 36.5863 235.914 30.6017 231.31 26.9183C226.246 23.2356 220.261 23.6955 216.117 28.2992L215.657 28.7597C214.736 30.1406 213.355 29.2202 212.895 29.2202C212.434 29.2202 211.514 28.2992 211.974 26.4579C213.815 20.9332 211.513 14.9485 205.989 12.6467C200.925 10.3448 194.48 12.1862 191.717 17.2504L191.257 17.7109C190.336 19.0918 188.955 18.6318 188.494 18.6318C188.034 18.6318 187.114 17.7109 187.114 16.33V15.8695C188.035 9.88487 184.351 4.82066 178.367 3.4392C172.381 2.05831 166.857 5.28058 165.016 10.8053V11.2658C164.555 12.6467 163.174 12.6467 162.714 12.6467C162.254 12.6467 160.873 12.1862 160.873 10.8053V10.3448C159.952 4.36017 155.348 0.21637 149.363 0.21637C143.379 0.21637 138.774 4.35961 137.854 9.88431V10.3448C137.854 11.7257 136.473 12.1862 136.013 12.1862C135.552 12.1862 134.171 12.1862 133.711 10.8053V10.3448C131.869 4.8201 126.345 1.59782 120.36 2.97872C114.835 4.35961 111.153 9.42383 111.613 15.409V15.8695C112.074 17.2504 110.692 18.1714 110.232 18.1714C109.311 18.6319 108.391 18.6318 108.851 16.7905L108.391 16.33C105.168 11.2658 99.1833 9.42439 93.6586 11.7263C88.1339 14.0281 85.832 20.0133 87.674 25.9979C88.1345 27.3788 87.2135 27.8393 86.753 28.2998C85.832 28.2998 84.9116 28.7603 83.5302 27.3788C79.3869 23.2356 72.9413 22.3146 68.3375 25.9979C63.7338 29.6813 62.3523 35.6659 65.5752 41.1906C66.4962 42.5715 65.5752 43.4924 65.1147 43.9529C64.1937 44.4134 63.2733 44.8739 61.8919 43.9529C56.8276 40.7301 50.843 41.1906 46.6992 45.7943C42.556 49.9376 42.556 56.3832 46.6992 60.9869C47.6202 62.3678 47.1597 63.2888 46.6992 63.7493C46.2387 64.2098 45.3183 65.1302 43.9369 64.2098C38.8727 61.4474 32.4275 63.7493 29.6652 68.8135C26.4424 73.8777 27.8238 79.8624 32.888 83.5457C34.2689 84.4666 34.2689 85.8475 33.809 86.308C33.3485 87.229 32.888 88.1494 31.0466 87.6889C25.0615 86.7679 19.5373 89.9908 17.6959 95.5155C15.8546 101.04 18.6169 107.025 24.1411 109.327C25.5219 109.787 25.522 111.168 25.522 111.629C25.0615 112.55 24.601 113.47 23.2201 113.47C17.2355 113.47 12.1712 117.613 11.7108 123.598C10.9665 128.435 13.2316 132.668 17.2856 134.844C16.3803 135.653 15.854 136.859 15.854 138.331V161.349C15.854 164.112 17.6954 165.953 20.4577 165.953H287.476C290.238 165.953 292.079 164.112 292.079 161.349V138.331C292.079 135.568 290.238 133.726 287.476 133.726ZM22.759 123.137C28.2837 123.137 32.8875 119.455 33.8079 113.93C35.1888 108.405 32.427 103.341 27.3628 101.039C25.5214 100.118 25.5214 99.1977 25.9819 98.2767C26.4424 97.8162 26.9028 96.4353 28.7442 96.8958C34.2689 98.2767 39.3331 95.5149 41.635 90.4507C43.9369 85.3865 42.556 79.8618 37.9522 76.6395C37.0313 75.7186 37.0313 74.7981 37.4918 73.8772C37.4918 72.9562 38.4127 72.0358 40.2541 72.9562C45.3183 75.2581 50.843 73.8772 54.0653 69.2734C57.2881 65.1302 56.8276 59.145 53.1443 55.0018C52.2234 54.0808 52.6838 52.6999 53.1443 52.2394C53.6048 51.7789 54.5252 50.8585 56.3672 52.2394C60.5104 55.4623 66.4956 55.0018 70.1784 51.3184C73.8611 47.6357 74.7821 42.111 72.0197 37.0468C71.0988 35.6659 71.5593 34.7449 72.4802 34.2844C72.9407 33.8239 74.3216 33.3634 75.7031 34.7449C79.3864 38.8881 85.371 39.8091 89.9747 37.0468C95.039 34.2844 96.8803 28.7597 95.0389 23.2356C94.5785 21.3942 95.4994 20.9337 96.4199 20.4732C96.8803 20.0127 98.2612 20.0127 99.1822 21.3942L99.6427 21.8547C102.405 26.4584 107.93 28.7603 112.993 26.9189C118.518 25.0775 121.28 20.4738 120.82 14.9491V14.4886C120.82 13.1077 121.741 12.1867 122.661 12.1867C123.122 12.1867 124.503 12.1867 124.963 13.5676V14.0281C126.805 19.0923 131.408 22.3152 136.933 21.8547C142.458 21.3942 146.601 17.251 147.061 11.7263V11.2658C147.522 9.88487 148.442 9.42439 149.363 9.42439C150.284 9.42439 151.205 9.88487 151.665 11.7263V12.1867C152.126 17.7114 156.269 21.8547 161.794 22.3152C167.318 22.7757 171.922 19.5528 173.763 14.4886V14.0281C174.224 12.6472 175.144 12.6472 176.065 12.6472C176.986 12.6472 177.907 13.5682 177.907 14.9491V15.4096C177.446 20.9343 180.669 25.538 185.733 27.3794C190.797 29.2208 196.322 26.9189 199.084 22.3152L199.544 21.8547C200.465 20.4738 201.846 20.4738 202.307 20.9337C202.767 20.9337 203.688 21.8547 203.228 23.6961C201.386 28.7603 203.688 34.285 208.292 37.0468C213.356 39.8091 218.881 38.8881 222.564 34.7449L223.024 34.2844C223.945 32.9035 225.326 33.3635 225.786 33.8239C226.707 34.7449 227.167 35.2048 226.247 37.0468C223.485 42.111 224.406 47.6357 228.549 51.3184C232.692 55.0012 238.677 55.0012 243.281 51.7789C244.662 50.858 245.583 51.7789 246.043 52.2394C246.964 52.6999 247.424 53.6203 246.043 55.0018C242.361 59.145 241.9 64.6697 245.122 69.2734C248.345 73.8772 253.869 75.2581 258.934 72.9562C260.314 72.4957 261.235 73.4167 261.696 73.8772C262.156 74.3377 262.617 75.7186 261.235 76.6395C256.632 79.8624 255.251 85.3865 257.553 90.4507C259.854 95.5149 264.919 98.2773 270.443 96.8958C271.824 96.4353 272.745 97.3563 272.745 98.2767C273.206 99.1977 273.206 100.579 271.824 101.039C266.76 103.341 264.458 108.405 265.379 113.93C266.3 119.455 270.904 123.137 276.428 123.137C278.269 123.137 278.73 124.058 278.73 124.979C278.73 125.899 278.269 126.82 276.889 127.281C272.745 128.202 269.983 130.503 268.601 133.726H213.649C211.268 100.404 183.265 73.8766 149.364 73.8766C115.463 73.8766 87.4594 100.404 85.0783 133.726H30.5856C28.7442 130.503 25.9819 128.201 22.2986 127.281C20.4572 126.82 20.4572 125.9 20.4572 124.979C20.4572 124.058 20.9177 123.137 22.759 123.137ZM167.191 133.726C165.134 125.807 157.903 119.915 149.363 119.915C140.823 119.915 133.592 125.807 131.534 133.726H94.5779C96.8798 105.643 120.359 83.0846 149.363 83.0846C178.367 83.0846 202.306 105.183 204.608 133.726H167.191ZM157.65 133.726H141.537C142.918 130.964 146.601 129.123 149.824 129.123C153.046 129.123 156.268 130.964 157.65 133.726ZM282.872 156.745H25.0609V142.934H84.91H130.948H167.778H213.816H276.887H277.347H282.872V156.745Z" fill="#1C1B1A"/>
<mask id="path-8-inside-1_1_59" fill="white">
<rect x="11.5713" y="246.013" width="276.302" height="31.5574" rx="3.85701"/>
</mask>
<rect x="11.5713" y="246.013" width="276.302" height="31.5574" rx="3.85701" fill="#E7AB12" stroke="#1C1B1A" stroke-width="16.8306" mask="url(#path-8-inside-1_1_59)"/>
<mask id="path-9-inside-2_1_59" fill="white">
<rect x="15.7783" y="134.51" width="276.302" height="31.5574" rx="3.85701"/>
</mask>
<rect x="15.7783" y="134.51" width="276.302" height="31.5574" rx="3.85701" fill="#E7AB12" stroke="#1C1B1A" stroke-width="16.8306" mask="url(#path-9-inside-2_1_59)"/>
</g>
<defs>
<clipPath id="clip0_1_59">
<rect width="303.301" height="277.354" fill="white" transform="translate(0 0.21637)"/>
</clipPath>
</defs>
</svg>
